<?xml version="1.0" standalone="no"?>
<!DOCTYPE svg PUBLIC "-//W3C//DTD SVG 20010904//EN"
 "http://www.w3.org/TR/2001/REC-SVG-20010904/DTD/svg10.dtd">
<svg version="1.0" xmlns="http://www.w3.org/2000/svg"
 width="256.000000pt" height="256.000000pt" viewBox="0 0 256.000000 256.000000"
 preserveAspectRatio="xMidYMid meet">
<metadata>
Created by potrace 1.11, written by Peter Selinger 2001-2013
</metadata>
<g transform="translate(0.000000,256.000000) scale(0.100000,-0.100000)"
fill="#000000" stroke="none">
<path d="M1270 2470 c-75 -16 -133 -58 -167 -125 -35 -67 -18 -189 35 -249
104 -116 305 -89 373 51 42 86 23 199 -44 264 -48 46 -134 72 -197 59z"/>
<path d="M790 2044 c-20 -6 -43 -54 -27 -54 9 0 9 -2 0 -8 -15 -9 -13 -94 1
-104 7 -5 7 -8 -1 -8 -7 0 -10 -7 -7 -15 4 -8 10 -12 15 -9 5 3 6 -3 2 -12 -5
-14 -3 -16 11 -11 9 4 15 3 12 -1 -6 -10 42 -22 199 -52 60 -12 111 -23 112
-24 2 -1 5 -38 8 -82 2 -43 7 -115 10 -159 3 -44 8 -116 10 -160 3 -44 8 -109
10 -145 3 -36 7 -108 10 -160 3 -52 8 -115 10 -140 2 -25 7 -79 10 -120 3 -41
8 -91 10 -110 3 -19 7 -62 10 -95 6 -61 8 -77 24 -225 27 -234 25 -225 45
-255 67 -103 243 -81 249 31 0 16 -2 58 -6 94 -5 36 -10 86 -13 112 l-6 47 40
10 c62 17 176 122 243 225 113 171 97 332 -46 472 -36 35 -65 65 -65 67 0 2
22 18 48 34 27 17 110 81 185 142 104 86 139 120 145 144 11 38 6 74 -13 104
-36 54 -248 189 -490 311 -127 64 -147 71 -215 76 -41 3 -95 10 -120 15 -191
43 -381 73 -410 65z m865 -500 c33 -20 61 -37 63 -38 2 -3 -116 -96 -121 -96
-2 0 -5 29 -6 65 -1 35 -4 74 -6 85 -5 27 0 26 70 -16z m-166 -605 c79 -54 98
-96 71 -155 -20 -45 -99 -133 -101 -113 -1 8 -3 23 -4 34 -1 11 -6 63 -9 115
-4 52 -9 107 -12 123 -2 15 -1 27 2 27 3 0 27 -14 53 -31z"/>
</g>
</svg>
